<?xml version="1.0" encoding="UTF-8" standalone="no"?>
<!DOCTYPE svg PUBLIC "-//W3C//DTD SVG 1.1//EN" "http://www.w3.org/Graphics/SVG/1.1/DTD/svg11.dtd">
<svg width="100%" height="100%" viewBox="0 0 400 400" version="1.1" xmlns="http://www.w3.org/2000/svg" xmlns:xlink="http://www.w3.org/1999/xlink" xml:space="preserve" xmlns:serif="http://www.serif.com/" style="fill-rule:evenodd;clip-rule:evenodd;stroke-linejoin:round;stroke-miterlimit:2;">
    <g transform="matrix(1.67828,0,0,1.67828,-178.113,-143.158)">
        <path d="M280.719,247.023L323.219,247.023L301.969,225.773L280.719,247.023ZM344.469,204.523L333.726,193.78L312.711,193.78L323.219,183.273L301.969,162.023L280.719,183.273L291.226,193.78L270.211,193.78L259.469,204.523L280.719,225.773L301.969,204.523L323.219,225.773L344.469,204.523Z" style="fill:rgb(58,58,60);"/>
    </g>
    <g transform="matrix(1.67828,0,0,1.67828,-126.757,-194.802)">
        <path d="M152.156,311.913L194.656,354.413L237.156,311.913L237.156,290.598L216.159,269.601L194.656,291.104L173.185,269.633L152.156,290.663L152.156,311.913Z" style="fill:rgb(132,10,10);"/>
    </g>
    <g transform="matrix(0.766797,0.766797,-0.766797,0.766797,27.8968,14.8127)">
        <rect x="102.527" y="46.075" width="93.019" height="93.019" style="fill:rgb(132,10,10);"/>
    </g>
    <g transform="matrix(1.67828,0,0,1.67828,-126.757,-90.7523)">
        <path d="M194.656,117.714L216.035,139.094L173.276,139.094L194.656,117.714ZM173.406,117.825L194.656,96.575L215.906,117.825L237.156,96.575L194.656,54.075L152.156,96.575L173.406,117.825Z" style="fill:rgb(58,58,60);"/>
    </g>
</svg>
